Jurassic Park (Jurassic Park - O Parque dos Dinossauros (título no Brasil) ou Parque Jurássico (título em Portugal)) é um filme estaduniense, dirigido por Steven Spielberg e baseado no livro homônimo lançado por Michael Crichton. O elenco principal é composto por Sam Neill, Laura Dern, Jeff Goldblum, Richard Attenborough, Ariana Richards e Joseph Mazzello.

O filme é centrado na fictícia Ilha Nublar, próxima a Costa Rica, na América Central, onde um filantropo bilionário e uma pequena equipe de cientistas genéticos criaram um parque de diversão cujas principais atrações são várias espécies de dinossauros recriados através de clonagem. Apesar de ser baseado no livro de Michael Crichton, pouco do enredo original foi usado no roteiro do filme, que contem muitas diferenças quanto a história original, principalmente com relação aos personagens.

Format : Matroska
Format version : Version 2
File size : 1.82 GiB
Duration : 2h 6mn
Overall bit rate : 2 060 Kbps
Encoded date : UTC 2013-06-11 18:51:05
Writing application : mkvmerge v5.8.0 ('No Sleep / Pillow') built on Sep 2 2012 15:37:04
Writing library : libebml v1.2.3 + libmatroska v1.3.0

Video
ID : 2
Format : AVC
Format/Info : Advanced Video Codec
Format profile : High@L4.0
Format settings, CABAC : Yes
Format settings, ReFrames : 4 frames
Muxing mode : Header stripping
Codec ID : V_MPEG4/ISO/AVC
Duration : 2h 6mn
Bit rate : 1 932 Kbps
Width : 1 920 pixels
Height : 1 040 pixels
Display aspect ratio : 1.85:1
Frame rate mode : Constant
Frame rate : 23.976 fps
Color space : YUV
Chroma subsampling : 4:2:0
Bit depth : 8 bits
Scan type : Progressive
Bits/(Pixel*Frame) : 0.040
Stream size : 1.67 GiB (92%)
Title : por
Writing library : x264 core 125 r2200 999b753
Encoding settings : cabac=1 / ref=4 / deblock=1:0:0 / analyse=0x3:0x113 / me=hex / subme=7 / psy=1 / psy_rd=1.00:0.00 / mixed_ref=1 / me_range=16 / chroma_me=1 / trellis=1 / 8x8dct=1 / cqm=0 / deadzone=21,11 / fast_pskip=1 / chroma_qp_offset=-2 / threads=6 / lookahead_threads=1 / sliced_threads=0 / nr=0 / decimate=1 / interlaced=0 / bluray_compat=0 / constrained_intra=0 / bframes=8 / b_pyramid=2 / b_adapt=1 / b_bias=0 / direct=1 / weightb=1 / open_gop=0 / weightp=2 / keyint=240 / keyint_min=23 / scenecut=40 / intra_refresh=0 / rc_lookahead=40 / rc=2pass / mbtree=1 / bitrate=1932 / ratetol=1.0 / qcomp=0.60 / qpmin=10 / qpmax=51 / qpstep=4 / cplxblur=20.0 / qblur=0.5 / ip_ratio=1.40 / aq=1:1.00
Language : Portuguese
Default : Yes
Forced : No

Audio
ID : 1
Format : MPEG Audio
Format version : Version 1
Format profile : Layer 3
Mode : Joint stereo
Mode extension : MS Stereo
Muxing mode : Header stripping
Codec ID : A_MPEG/L3
Codec ID/Hint : MP3
Duration : 2h 6mn
Bit rate mode : Constant
Bit rate : 128 Kbps
Channel(s) : 2 channels
Sampling rate : 44.1 KHz
Compression mode : Lossy
Stream size : 116 MiB (6%)
Title : Jurassic Park 1 ( Zagor Lukas)
Language : Portuguese
Default : Yes
Forced : No

Text
ID : 3
Format : ASS
Codec ID : S_TEXT/ASS
Codec ID/Info : Advanced Sub Station Alpha
Compression mode : Lossless
Title : Credito
Language : Portuguese
Default : Yes
Forced : No